<?xml version="1.0" encoding="utf-8"?>
<!-- Generator: Adobe Illustrator 19.1.0, SVG Export Plug-In . SVG Version: 6.00 Build 0)  -->
<svg version="1.1" id="Capa_1" xmlns="http://www.w3.org/2000/svg" xmlns:xlink="http://www.w3.org/1999/xlink" x="0px" y="0px"
	 viewBox="-470 271.9 18.1 18.1" style="enable-background:new -470 271.9 18.1 18.1;" xml:space="preserve">
<style type="text/css">
	.st0{fill:#C78C00;}
</style>
<g>
	<path class="st0" d="M-453.7,271.9h-14.4c-1,0-1.9,0.8-1.9,1.9v14.4c0,1,0.8,1.9,1.9,1.9h14.4c1,0,1.9-0.8,1.9-1.9v-14.4
		C-451.9,272.7-452.7,271.9-453.7,271.9z M-459.6,274.9h0.9v2.8c0,0.5,0,0.5,0,0.6c0,0.1,0.1,0.2,0.3,0.2c0.2,0,0.3-0.2,0.3-0.3
		c0-0.1,0-0.1,0-0.6v-2.7h0.9v4.2h-0.9l0-0.2l-0.3-0.1c-0.1,0.1-0.1,0.2-0.2,0.3c-0.1,0.1-0.2,0.1-0.3,0.1c-0.2,0-0.3,0-0.4-0.1
		c-0.1-0.1-0.2-0.1-0.2-0.2c0-0.1-0.1-0.2-0.1-0.3c0-0.1,0-0.4,0-0.8V274.9L-459.6,274.9z M-462.6,276.7c0-0.4,0-0.8,0.1-1
		c0.1-0.2,0.2-0.4,0.4-0.5c0.2-0.1,0.4-0.2,0.7-0.2c0.2,0,0.5,0,0.6,0.1c0.2,0.1,0.3,0.2,0.4,0.3c0.1,0.1,0.2,0.3,0.2,0.4
		c0,0.2,0.1,0.4,0.1,0.7v0.7c0,0.4,0,0.7,0,0.9c0,0.2-0.1,0.3-0.2,0.5c-0.1,0.2-0.2,0.3-0.4,0.3c-0.2,0.1-0.4,0.1-0.6,0.1
		c-0.2,0-0.5,0-0.6-0.1c-0.2-0.1-0.3-0.2-0.4-0.3c-0.1-0.1-0.1-0.3-0.2-0.5c0-0.2-0.1-0.5-0.1-0.9L-462.6,276.7z M-464.7,273.4
		l0.7,2.3c0.1-0.6,0.4-1.4,0.6-2.3h0.7l-0.8,3.3l0,0v2.3h-0.8v-2.3l0,0l-1-3.3H-464.7z M-454.3,286.4c-0.1,1-1,1.9-2.1,2
		c-3,0.1-6.1,0.1-9.1,0c-1-0.1-2-0.9-2.1-2c-0.1-1.6-0.1-3.3,0-4.9c0.1-1,1-1.9,2.1-2c3-0.1,6.1-0.1,9.1,0c1,0.1,2,0.9,2.1,2
		C-454.2,283.1-454.2,284.7-454.3,286.4z M-461.4,278.7c0.1,0,0.2-0.1,0.3-0.2c0-0.1,0-0.2,0-0.5v-1.8c0-0.4,0-0.5,0-0.6
		c0-0.1-0.1-0.2-0.3-0.2c-0.1,0-0.2,0.1-0.3,0.2c0,0.1,0,0.2,0,0.6v1.8c0,0.3,0,0.5,0,0.5C-461.6,278.6-461.5,278.7-461.4,278.7z
		 M-466.4,281.8h0.7h0.1v0.1v4.7h0.9v-4.7v-0.1h0.1h0.7v-0.9h-2.6V281.8z M-462.1,285c0,0.5,0,0.6,0,0.7c0,0.1-0.1,0.2-0.3,0.2
		c-0.1,0-0.3-0.1-0.3-0.2c0-0.1,0-0.2,0-0.7v-2.8h-0.9v3c0,0.4,0,0.7,0,0.8c0,0.1,0,0.2,0.1,0.3c0,0.1,0.1,0.2,0.2,0.2
		c0.1,0.1,0.2,0.1,0.3,0.1c0.1,0,0.2,0,0.3-0.1c0.1-0.1,0.2-0.2,0.2-0.3l0.3,0.1l0,0.2h0.9v-4.4h-0.9L-462.1,285z M-458.3,282.5
		c0-0.1-0.1-0.2-0.2-0.2c-0.1-0.1-0.2-0.1-0.3-0.1c-0.1,0-0.2,0-0.3,0.1c-0.1,0.1-0.2,0.2-0.3,0.3l-0.3,0.4v-0.5v-1.6h-0.9v5.8h0.8
		l0-0.3l0.1-0.4l0.2,0.3c0.1,0.1,0.2,0.2,0.3,0.3c0.1,0.1,0.2,0.1,0.3,0.1c0.1,0,0.3-0.1,0.4-0.2c0.1-0.1,0.2-0.2,0.2-0.4
		c0-0.2,0.1-0.4,0.1-0.4v-2.3c0,0,0-0.2,0-0.7C-458.2,282.7-458.3,282.6-458.3,282.5z M-459.1,285c0,0.4,0,0.5,0,0.6
		c0,0.1-0.1,0.2-0.3,0.2c-0.1,0-0.2-0.1-0.3-0.2c0-0.1,0-0.2,0-0.6v-1.2c0-0.4,0-0.5,0-0.6c0-0.1,0.1-0.2,0.3-0.2
		c0.1,0,0.2,0.1,0.3,0.2c0,0.1,0,0.2,0,0.6L-459.1,285L-459.1,285L-459.1,285z M-456.7,284.6h0.1h1.3v-0.5c0-0.4,0-0.9-0.1-1.2
		c-0.1-0.2-0.2-0.4-0.4-0.5c-0.2-0.1-0.4-0.2-0.7-0.2c-0.2,0-0.4,0.1-0.6,0.2c-0.2,0.1-0.3,0.3-0.4,0.5c-0.1,0.2-0.1,0.5-0.1,1.1
		v1.3c0,0.2,0,0.4,0.1,0.6c0,0.2,0.1,0.3,0.2,0.4c0.1,0.1,0.2,0.2,0.4,0.3c0.2,0.1,0.4,0.1,0.6,0.1c0.2,0,0.4,0,0.6-0.1
		c0.1-0.1,0.3-0.2,0.4-0.3c0.1-0.2,0.2-0.3,0.2-0.4c0-0.1,0-0.4,0-0.6V285h-0.8v0.5c0,0.3,0,0.4-0.1,0.5c0,0.1-0.2,0.2-0.3,0.2
		c-0.1,0-0.2-0.1-0.3-0.2c0-0.1,0-0.2,0-0.5v-0.8L-456.7,284.6L-456.7,284.6L-456.7,284.6z M-456.7,284v-0.5c0-0.4,0-0.3,0-0.4
		c0-0.1,0.1-0.2,0.3-0.2c0.1,0,0.2,0.1,0.3,0.2c0,0.1,0,0,0,0.3v0.5v0.1h-0.1h-0.3h-0.1C-456.7,284.1-456.7,284-456.7,284z"/>
</g>
</svg>
